HIERARCHY
ROOT Hips
{
	OFFSET -0.001795 -0.223333 0.028219
	CHANNELS 6 Xposition Yposition Zposition Zrotation Yrotation Xrotation 
	JOINT LeftUpLeg
	{
		OFFSET 0.069520 -0.091406 -0.006815
		CHANNELS 3 Zrotation Yrotation Xrotation
		JOINT LeftLeg
		{
			OFFSET 0.034277 -0.375199 -0.004496
			CHANNELS 3 Zrotation Yrotation Xrotation
			JOINT LeftFoot
			{
				OFFSET -0.013596 -0.397961 -0.043693
				CHANNELS 3 Zrotation Yrotation Xrotation
				JOINT LeftToe
				{
					OFFSET 0.026358 -0.055791 0.119288
					CHANNELS 3 Zrotation Yrotation Xrotation
					End Site
					{
						OFFSET 0.000000 0.000000 0.000000
					}
				}
			}
		}
	}
	JOINT RightUpLeg
	{
		OFFSET -0.067670 -0.090522 -0.004320
		CHANNELS 3 Zrotation Yrotation Xrotation
		JOINT RightLeg
		{
			OFFSET -0.038290 -0.382569 -0.008850
			CHANNELS 3 Zrotation Yrotation Xrotation
			JOINT RightFoot
			{
				OFFSET 0.015774 -0.398415 -0.042312
				CHANNELS 3 Zrotation Yrotation Xrotation
				JOINT RightToe
				{
					OFFSET -0.025372 -0.048144 0.123348
					CHANNELS 3 Zrotation Yrotation Xrotation
					End Site
					{
						OFFSET 0.000000 0.000000 0.000000
					}
				}
			}
		}
	}
	JOINT Spine
	{
		OFFSET -0.002533 0.108963 -0.026696
		CHANNELS 3 Zrotation Yrotation Xrotation
		JOINT Spine1
		{
			OFFSET 0.005487 0.135180 0.001092
			CHANNELS 3 Zrotation Yrotation Xrotation
			JOINT Spine2
			{
				OFFSET 0.001457 0.052922 0.025425
				CHANNELS 3 Zrotation Yrotation Xrotation
				JOINT Neck
				{
					OFFSET -0.002778 0.213870 -0.042857
					CHANNELS 3 Zrotation Yrotation Xrotation
					JOINT Head
					{
						OFFSET 0.005152 0.064970 0.051349
						CHANNELS 3 Zrotation Yrotation Xrotation
						End Site
						{
							OFFSET 0.000000 0.000000 0.000000
						}
					}
				}
				JOINT LeftShoulder
				{
					OFFSET 0.078845 0.121749 -0.034090
					CHANNELS 3 Zrotation Yrotation Xrotation
					JOINT LeftArm
					{
						OFFSET 0.090977 0.030469 -0.008868
						CHANNELS 3 Zrotation Yrotation Xrotation
						JOINT LeftForeArm
						{
							OFFSET 0.259612 -0.012772 -0.027456
							CHANNELS 3 Zrotation Yrotation Xrotation
							JOINT LeftHand
							{
								OFFSET 0.249234 0.008986 -0.001171
								CHANNELS 3 Zrotation Yrotation Xrotation
								End Site
								{
									OFFSET 0.000000 0.000000 0.000000
								}
							}
						}
					}
				}
				JOINT RightShoulder
				{
					OFFSET -0.081759 0.118833 -0.038615
					CHANNELS 3 Zrotation Yrotation Xrotation
					JOINT RightArm
					{
						OFFSET -0.096012 0.032551 -0.009143
						CHANNELS 3 Zrotation Yrotation Xrotation
						JOINT RightForeArm
						{
							OFFSET -0.253742 -0.013329 -0.021401
							CHANNELS 3 Zrotation Yrotation Xrotation
							JOINT RightHand
							{
								OFFSET -0.255298 0.007772 -0.005559
								CHANNELS 3 Zrotation Yrotation Xrotation
								End Site
								{
									OFFSET 0.000000 0.000000 0.000000
								}
							}
						}
					}
				}
			}
		}
	}
}
MOTION
Frames: 10
Frame Time: 0.050000
0.000000 0.931479 0.000000 -2.693763 0.919329 2.904550 -1.970340 1.203487 10.920719 2.537927 -0.329484 1.016273 -0.176960 -2.105226 -3.295994 0.000000 0.000000 0.000000 0.374179 2.937327 -28.636355 5.080712 -0.594526 7.580748 -7.296716 -18.307759 7.181198 0.000000 0.000000 0.000000 3.286015 -0.271642 3.000519 0.184401 0.478338 -19.997952 -3.414920 -0.366811 27.195553 6.993447 -3.508681 -18.637990 0.000000 0.000000 0.000000 -20.389730 -4.666589 1.432409 -52.365620 -6.531788 -5.745482 -10.194770 -40.665803 6.186138 0.000000 0.000000 0.000000 22.650348 -2.831729 -2.922247 59.519038 -6.957966 -11.609256 9.057324 37.332663 5.047889 0.000000 0.000000 0.000000 
-0.005556 0.927233 0.031830 -2.854886 -0.063758 4.468499 -1.113876 1.168958 11.335229 1.072697 -0.166976 1.180825 0.580312 -1.849882 -6.205889 0.000000 0.000000 0.000000 1.932649 3.403807 -29.051743 4.044339 -0.399910 5.646635 -7.819188 -19.446928 5.245184 0.000000 0.000000 0.000000 3.577989 -0.257736 2.381740 -0.208631 0.570517 -20.440501 -2.935015 -0.747946 26.620534 5.375652 -2.293709 -20.623561 0.000000 0.000000 0.000000 -20.168505 -5.268193 2.071745 -53.312560 -6.573128 -5.812757 -6.945729 -43.436252 5.547371 0.000000 0.000000 0.000000 22.833870 -2.866908 -3.339853 59.136829 -8.654472 -12.219220 8.516981 36.881899 4.624538 0.000000 0.000000 0.000000 
-0.012752 0.923877 0.066712 -2.712952 -0.348441 5.351560 -0.323801 1.131704 11.868897 0.735416 -0.192922 2.827852 0.330710 -2.047164 -5.525604 0.000000 0.000000 0.000000 2.603828 3.578149 -29.124769 4.065900 -0.396872 5.665799 -7.706137 -19.294780 6.650571 0.000000 0.000000 0.000000 4.479013 -0.229748 1.392877 -0.592485 0.688178 -21.638190 -3.311228 -1.752136 28.744136 5.207735 -2.358647 -21.465484 0.000000 0.000000 0.000000 -20.281047 -4.529130 2.120439 -52.692337 -7.672920 -5.593065 -10.207833 -43.599586 7.147229 0.000000 0.000000 0.000000 22.645324 -3.573908 -4.090922 58.972396 -8.340645 -12.200950 8.264836 35.865686 4.317818 0.000000 0.000000 0.000000 
-0.021457 0.922215 0.105437 -3.152559 -1.423690 6.539044 0.374058 0.945029 10.571658 0.391066 -0.303376 7.336447 0.026390 -3.044293 -6.149408 0.000000 0.000000 0.000000 3.532802 3.969690 -29.912970 5.080779 -0.536509 7.875910 -8.561434 -21.137996 7.050399 0.000000 0.000000 0.000000 5.395780 -0.208902 0.565224 -0.573898 0.684887 -22.995996 -3.049727 -2.063718 29.846083 3.962057 -1.999217 -19.169418 0.000000 0.000000 0.000000 -20.928131 -4.472430 2.476918 -52.944552 -6.799808 -6.167252 -9.112226 -44.402374 7.053586 0.000000 0.000000 0.000000 22.653538 -3.684884 -4.489485 57.492565 -8.310631 -11.918990 7.867764 36.762456 4.194966 0.000000 0.000000 0.000000 
-0.031896 0.923679 0.147762 -3.577456 -2.978586 7.138706 0.930005 0.739446 8.734260 -0.073063 -0.346179 12.831216 0.202124 -0.648066 -2.479982 0.000000 0.000000 0.000000 4.676416 4.067802 -28.288876 6.275904 -0.714041 9.577059 -7.981487 -20.114091 6.955646 0.000000 0.000000 0.000000 6.005863 -0.149460 -0.359589 -0.059391 0.489055 -21.530744 -3.184230 -3.006213 28.464783 4.267325 -2.644880 -17.258598 0.000000 0.000000 0.000000 -21.069358 -2.675202 1.941205 -54.121965 -5.056777 -6.931859 -11.879677 -44.858505 8.578753 0.000000 0.000000 0.000000 21.812949 -3.011320 -4.613226 57.327232 -7.770461 -11.416659 8.033144 37.533337 4.050689 0.000000 0.000000 0.000000 
-0.043122 0.927167 0.191753 -4.644374 -4.617278 7.783997 2.476335 0.301555 4.861635 -0.737973 -0.215658 22.346292 -0.018559 0.218612 0.624610 0.000000 0.000000 0.000000 6.248093 4.332220 -27.388932 7.016826 -0.813513 11.332825 -7.296318 -18.859865 6.683870 0.000000 0.000000 0.000000 7.226043 -0.060798 -1.535158 0.376580 0.335216 -21.417620 -2.588337 -1.891578 28.342490 3.086264 -1.809899 -17.181659 0.000000 0.000000 0.000000 -20.757875 -1.901262 1.466809 -54.494608 -3.116409 -7.771965 -13.167825 -43.892509 8.876974 0.000000 0.000000 0.000000 20.538561 -3.354449 -4.557698 56.884659 -7.290328 -11.153667 9.298176 36.635874 4.320081 0.000000 0.000000 0.000000 
-0.054155 0.929656 0.234902 -5.216835 -6.933334 6.889430 5.003303 -0.143708 -1.600515 -3.643762 1.644830 37.542878 -0.906706 1.261928 8.294118 0.000000 0.000000 0.000000 8.601485 4.157245 -23.653928 6.082112 -0.558252 12.000862 -6.143946 -16.210695 4.324681 0.000000 0.000000 0.000000 7.955207 -0.179266 -0.239757 1.068549 0.105907 -21.324110 -2.118306 0.694193 27.726998 3.667226 -1.989070 -17.121875 0.000000 0.000000 0.000000 -21.635196 -1.062933 0.625968 -54.830391 -0.771264 -8.738023 -14.122168 -43.209477 8.938739 0.000000 0.000000 0.000000 18.310316 -2.474988 -3.379623 58.440608 -6.529317 -11.187813 10.821126 37.923483 5.128920 0.000000 0.000000 0.000000 
-0.064193 0.931656 0.276126 -5.195383 -8.934386 5.430737 6.324425 -0.311638 -9.889557 -3.307930 3.121402 53.240743 0.474431 4.301103 10.078449 0.000000 0.000000 0.000000 10.113959 3.471443 -19.051312 4.625913 -0.215197 12.413801 -5.356836 -13.803892 1.728688 0.000000 0.000000 0.000000 7.870840 -0.317440 1.440904 0.355963 0.289221 -22.355516 -0.586324 3.428687 28.611482 5.095813 -2.758267 -17.094351 0.000000 0.000000 0.000000 -21.915422 -0.706592 0.008514 -54.723080 0.473796 -9.288087 -15.313030 -42.528997 9.086051 0.000000 0.000000 0.000000 18.973628 -2.591590 -3.141245 57.729528 -4.653390 -10.277728 11.674257 38.466655 5.715730 0.000000 0.000000 0.000000 
-0.073613 0.934469 0.316418 -4.382265 -11.232434 4.038410 5.637678 -0.406501 -16.561080 -1.799879 3.452364 59.896018 2.608625 6.953578 5.756403 0.000000 0.000000 0.000000 10.382091 2.479222 -14.255357 3.104986 0.112324 11.984709 -5.125356 -12.413024 -0.355777 0.000000 0.000000 0.000000 6.871219 -0.359123 2.513138 -0.253697 0.389254 -22.092571 1.124765 5.411276 28.727345 5.310639 -2.957149 -15.730690 0.000000 0.000000 0.000000 -22.971028 -0.756274 -0.168234 -53.934356 1.423485 -9.572888 -14.202155 -41.942177 8.388924 0.000000 0.000000 0.000000 18.874999 -1.196544 -2.214908 57.746938 -2.713055 -9.420120 9.262714 40.456745 5.293478 0.000000 0.000000 0.000000 
-0.082667 0.937389 0.355825 -3.113537 -13.879112 2.974496 5.063020 -0.360236 -23.011944 -1.051204 3.822615 60.348428 3.924352 8.660274 2.563788 0.000000 0.000000 0.000000 9.592549 1.514672 -10.009880 2.107214 0.362271 12.175113 -4.673756 -9.973786 -2.816841 0.000000 0.000000 0.000000 5.172939 -0.327273 3.033680 -0.194436 0.351114 -22.788874 2.037918 7.499903 29.648125 5.035688 -2.889257 -14.107124 0.000000 0.000000 0.000000 -23.669602 0.530944 -1.063285 -53.338217 2.539404 -10.028666 -14.761103 -41.903420 8.586167 0.000000 0.000000 0.000000 18.589008 -0.718368 -1.802956 58.141808 -0.701712 -8.682392 9.436802 42.109330 5.731937 0.000000 0.000000 0.000000 
